<svg xmlns="http://www.w3.org/2000/svg" width="48" height="48" viewBox="0 0 48 48"><g><g><g><g><path fill="#f1f1f1" d="M24 48c13.255 0 24-10.745 24-24S37.255 0 24 0 0 10.745 0 24s10.745 24 24 24z"/></g></g><g><g><path fill="#040404" d="M12.708 12.707c.353-.353 1.06-.353 1.414 0L35.335 33.92c.354.354.354 1.061 0 1.415-.353.353-1.06.353-1.414 0L12.708 14.12c-.354-.353-.354-1.06 0-1.414z"/></g><g><path fill="#040404" d="M35.335 12.707c.354.354.354 1.061 0 1.415L14.122 35.335c-.353.353-1.06.353-1.414 0-.354-.354-.354-1.061 0-1.415L33.92 12.707c.353-.353 1.06-.353 1.414 0z"/></g></g></g></g></svg>