<svg xmlns="http://www.w3.org/2000/svg" width="30" height="25" viewBox="0 0 30 25"><g><g><path fill="#fff" d="M25.477 12.264l-10.278 9.969c-.14.134-.258.134-.398 0l-10.278-9.97c-2.138-2.075-2.572-6.002.428-8.407 2.28-1.824 5.795-1.55 7.998.586L15 6.434l2.05-1.992c2.216-2.148 5.731-2.41 7.999-.591 2.994 2.404 2.549 6.354.428 8.413zm1.382-10.46C23.473-.909 18.24-.502 15 2.64 11.76-.5 6.527-.914 3.14 1.803c-4.406 3.532-3.761 9.289-.62 12.34l10.277 9.97A3.15 3.15 0 0 0 15 25c.838 0 1.617-.312 2.203-.881l10.277-9.97c3.135-3.051 3.791-8.809-.62-12.346z"/></g></g></svg>