<svg xmlns="http://www.w3.org/2000/svg" width="30" height="25" viewBox="0 0 30 25">
  <path id="heart" d="M26.859,33.781A9.151,9.151,0,0,0,15,34.618a9.145,9.145,0,0,0-11.859-.837,8.17,8.17,0,0,0-.621,12.34L12.8,56.091A3.187,3.187,0,0,0,17.2,56.1L27.48,46.127A8.176,8.176,0,0,0,26.859,33.781Zm-1.383,10.46L15.2,54.211a.248.248,0,0,1-.4,0L4.523,44.242a5.569,5.569,0,0,1,.428-8.407,6.159,6.159,0,0,1,8,.586L15,38.412l2.051-1.992a6.155,6.155,0,0,1,8-.591A5.592,5.592,0,0,1,25.476,44.242Z" transform="translate(0 -31.978)" fill="#f76d6d"/>
</svg>
