<svg xmlns="http://www.w3.org/2000/svg" width="25" height="22" viewBox="0 0 25 22"><g><g><g><path fill="#f1f1f1" d="M15.625 14.592a.278.278 0 0 1-.277.278H9.652a.278.278 0 0 1-.277-.278v-.547H0v5.598A2.351 2.351 0 0 0 2.344 22h20.312A2.351 2.351 0 0 0 25 19.643v-5.598h-9.375z"/></g><g><path fill="#f1f1f1" d="M15.625 4.714h-6.25V3.143h6.25zm7.031 0H18.75V2.357A2.351 2.351 0 0 0 16.406 0H8.594A2.351 2.351 0 0 0 6.25 2.357v2.357H2.344A2.351 2.351 0 0 0 0 7.071v5.402h9.375v-.547c0-.153.124-.278.277-.278h5.696c.153 0 .277.125.277.278v.547H25V7.071a2.351 2.351 0 0 0-2.344-2.357z"/></g><g><path fill="#f1f1f1" d="M10.967 13.259c0-.393.393-.786.786-.786h1.494c.393 0 .786.393.786.786s-.393.786-.786.786h-1.494c-.393 0-.786-.393-.786-.786z"/></g></g></g></svg>