<svg xmlns="http://www.w3.org/2000/svg" width="14" height="22" viewBox="0 0 14 22"><g><g><path fill="#f1f1f1" d="M7.583 3.143A.587.587 0 0 0 7 2.553c-2.466 0-4.472 2.027-4.472 4.519 0 .325.261.589.583.589a.587.587 0 0 0 .583-.59C3.694 5.23 5.177 3.733 7 3.733a.587.587 0 0 0 .583-.59zM14 7.072c0 3.905-3.134 7.071-7 7.071s-7-3.166-7-7.071C0 3.166 3.134 0 7 0s7 3.166 7 7.072zm-8.556 8.492zm0 0a8.46 8.46 0 0 0 1.556.15 8.46 8.46 0 0 0 1.556-.15v4.552l-1.07 1.622a.58.58 0 0 1-.971 0l-1.07-1.622z"/></g></g></svg>