<svg xmlns="http://www.w3.org/2000/svg" width="26" height="22" viewBox="0 0 26 22"><g><g><path fill="#f1f1f1" d="M25.429 12.625a2.148 2.148 0 0 0 0-2.917L16.82.604A1.898 1.898 0 0 0 15.442 0h-1.979l7.972 8.432c.69.73 1.071 1.702 1.071 2.735s-.38 2.004-1.07 2.734l-7.072 7.48.015.015a1.876 1.876 0 0 0 2.758 0l8.292-8.77zM4.55 6.875c-1.077 0-1.95-.923-1.95-2.063 0-1.139.873-2.062 1.95-2.062s1.95.923 1.95 2.063c0 1.139-.873 2.062-1.95 2.062zm15.679 2.833L11.62.604A1.898 1.898 0 0 0 10.242 0H1.95C.873 0 0 .923 0 2.062v8.771c0 .547.205 1.072.571 1.459l8.608 9.104a1.876 1.876 0 0 0 2.758 0l8.292-8.77a2.148 2.148 0 0 0 0-2.918z"/></g></g></svg>