<svg xmlns="http://www.w3.org/2000/svg" width="92" height="27" viewBox="0 0 92 27">
  <g id="Group_247" data-name="Group 247" transform="translate(-22 -40)">
    <g id="Group_246" data-name="Group 246" transform="translate(22 40)">
      <g id="Group_230" data-name="Group 230" transform="translate(0 0)">
        <path id="Path_11" data-name="Path 11" d="M60.957,56.726l-3.364-3.368,2.985-3.065a6,6,0,0,0-8.464-8.514L45.8,48.1c-.188.189-.453-.076-.377-.265l2.191-3.141A6.1,6.1,0,0,0,41.61,40a5.94,5.94,0,0,0-5.933,6.017v1.411a.831.831,0,0,1-1.66-.011V46.055a6.008,6.008,0,0,0-12.016,0v14.91a6.008,6.008,0,1,0,12.016,0V59.678a.83.83,0,0,1,1.66-.012V61a5.923,5.923,0,0,0,5.933,5.942,6.113,6.113,0,0,0,4.761-2.195l2.758-2.876,3.363,3.368a6,6,0,0,0,8.465-8.514Z" transform="translate(-22 -40)" fill="#fff"/>
      </g>
      <g id="Group_245" data-name="Group 245" transform="translate(45.702 6.092)">
        <g id="Group_244" data-name="Group 244">
          <g id="Group_231" data-name="Group 231" transform="translate(0.143)">
            <path id="Path_12" data-name="Path 12" d="M109.169,51.436h.739v3.055h3.646V51.436h.739v6.793h-.739V55.184h-3.646v3.046h-.739Z" transform="translate(-109.169 -51.436)" fill="#fff"/>
          </g>
          <g id="Group_232" data-name="Group 232" transform="translate(6.758 1.619)">
            <path id="Path_13" data-name="Path 13" d="M125.492,54.93a1.494,1.494,0,0,1,.5,1.212v2.465a.961.961,0,0,1-.606.983,4.525,4.525,0,0,1-1.674.249,2.6,2.6,0,0,1-1.392-.357,1.287,1.287,0,0,1-.58-1.191,1.61,1.61,0,0,1,.5-1.319,2.126,2.126,0,0,1,1.386-.412,3.206,3.206,0,0,1,1.613.356v-.6q0-1.141-1.346-1.14A3.414,3.414,0,0,0,123,55.3a2.089,2.089,0,0,0-.759.366V54.93a2.6,2.6,0,0,1,.837-.305,5.05,5.05,0,0,1,1.052-.112A2.057,2.057,0,0,1,125.492,54.93Zm-.57,4.151a.423.423,0,0,0,.318-.433V57.507a2.857,2.857,0,0,0-.648-.208,3.784,3.784,0,0,0-.771-.077,1.718,1.718,0,0,0-1,.245.813.813,0,0,0-.349.713.823.823,0,0,0,.41.769,1.95,1.95,0,0,0,1,.239A3.615,3.615,0,0,0,124.922,59.081Z" transform="translate(-121.738 -54.513)" fill="#fff"/>
          </g>
          <g id="Group_233" data-name="Group 233" transform="translate(12.653 1.619)">
            <path id="Path_14" data-name="Path 14" d="M139.887,54.981a1.873,1.873,0,0,1,.478,1.4v3.31h-.739v-3.31q0-1.2-1.376-1.2a2.4,2.4,0,0,0-1.243.346,2.459,2.459,0,0,1,.133.855v3.31H136.4v-3.31q0-1.2-1.376-1.2a4.873,4.873,0,0,0-1.346.2v4.308h-.739V55.012a4.764,4.764,0,0,1,2.167-.5,2.307,2.307,0,0,1,1.5.417,3.57,3.57,0,0,1,1.726-.417A2.164,2.164,0,0,1,139.887,54.981Z" transform="translate(-132.939 -54.513)" fill="#fff"/>
          </g>
          <g id="Group_234" data-name="Group 234" transform="translate(21.363 1.711)">
            <path id="Path_15" data-name="Path 15" d="M153.236,55.33l-2.9,3.788h2.9v.652h-3.748v-.662l2.866-3.789H149.56v-.631h3.677Z" transform="translate(-149.488 -54.688)" fill="#fff"/>
          </g>
          <g id="Group_235" data-name="Group 235" transform="translate(26.189 1.619)">
            <path id="Path_16" data-name="Path 16" d="M162.413,54.93a1.492,1.492,0,0,1,.5,1.212v2.465a.961.961,0,0,1-.605.983,4.527,4.527,0,0,1-1.674.249,2.607,2.607,0,0,1-1.393-.357,1.288,1.288,0,0,1-.58-1.191,1.609,1.609,0,0,1,.5-1.319,2.124,2.124,0,0,1,1.386-.412,3.2,3.2,0,0,1,1.613.356v-.6q0-1.141-1.346-1.14a3.408,3.408,0,0,0-.894.122,2.085,2.085,0,0,0-.759.366V54.93a2.6,2.6,0,0,1,.837-.305,5.059,5.059,0,0,1,1.053-.112A2.055,2.055,0,0,1,162.413,54.93Zm-.57,4.151a.423.423,0,0,0,.318-.433V57.507a2.861,2.861,0,0,0-.647-.208,3.787,3.787,0,0,0-.77-.077,1.721,1.721,0,0,0-1,.245.814.814,0,0,0-.349.713.822.822,0,0,0,.41.769,1.952,1.952,0,0,0,1,.239A3.611,3.611,0,0,0,161.843,59.081Z" transform="translate(-158.659 -54.513)" fill="#fff"/>
          </g>
          <g id="Group_236" data-name="Group 236" transform="translate(0 7.87)">
            <path id="Path_17" data-name="Path 17" d="M111.043,70.525l-.483.54v2.118H108.9V66.39h1.664v2.831l2.095-2.831h2.1l-2.567,2.872,2.784,3.921h-2.085Z" transform="translate(-108.897 -66.39)" fill="#fff"/>
          </g>
          <g id="Group_237" data-name="Group 237" transform="translate(6.654 9.357)">
            <path id="Path_18" data-name="Path 18" d="M125.639,69.607a1.477,1.477,0,0,1,.7,1.41l-.011,2.434a.988.988,0,0,1-.646.932,4.659,4.659,0,0,1-1.859.29q-2.28,0-2.28-1.761a1.477,1.477,0,0,1,.468-1.162,2.032,2.032,0,0,1,1.392-.417,3.062,3.062,0,0,1,.76.1,2.8,2.8,0,0,1,.657.249v-.326q0-.887-1.15-.886a2.836,2.836,0,0,0-.909.158,2.41,2.41,0,0,0-.745.382V69.663a2.694,2.694,0,0,1,.848-.315,5.4,5.4,0,0,1,1.227-.133A3.113,3.113,0,0,1,125.639,69.607Zm-1.027,3.926a.279.279,0,0,0,.206-.285v-.794a2.443,2.443,0,0,0-.792-.123,1.4,1.4,0,0,0-.734.148.51.51,0,0,0-.232.463.574.574,0,0,0,.242.479.915.915,0,0,0,.569.183A2.589,2.589,0,0,0,124.611,73.533Z" transform="translate(-121.54 -69.215)" fill="#fff"/>
          </g>
          <g id="Group_238" data-name="Group 238" transform="translate(12.806 9.357)">
            <path id="Path_19" data-name="Path 19" d="M133.23,69.908a2.174,2.174,0,0,1,.539-.3,5.706,5.706,0,0,1,.863-.28,3.892,3.892,0,0,1,.919-.117,2,2,0,0,1,1.18.255v1.11a5.731,5.731,0,0,0-1.18-.092,5.026,5.026,0,0,0-.79.051v3.982H133.23Z" transform="translate(-133.23 -69.215)" fill="#fff"/>
          </g>
          <g id="Group_239" data-name="Group 239" transform="translate(17.202 9.367)">
            <path id="Path_20" data-name="Path 20" d="M149.111,69.657a1.712,1.712,0,0,1,.524,1.41V74.53H148.1V71.373q0-.886-1.007-.886a1.239,1.239,0,0,0-.708.194c.014.163.021.292.021.387V74.53h-1.531V71.373q0-.886-1.007-.886a1.687,1.687,0,0,0-.759.173v3.87h-1.531V69.815a5.063,5.063,0,0,1,1.223-.4,6.842,6.842,0,0,1,1.469-.184,2.581,2.581,0,0,1,1.53.366,4.556,4.556,0,0,1,.847-.269,4.038,4.038,0,0,1,.847-.1A2.545,2.545,0,0,1,149.111,69.657Z" transform="translate(-141.582 -69.234)" fill="#fff"/>
          </g>
          <g id="Group_240" data-name="Group 240" transform="translate(26.332 9.357)">
            <path id="Path_21" data-name="Path 21" d="M163.03,69.607a1.477,1.477,0,0,1,.7,1.41l-.011,2.434a.988.988,0,0,1-.646.932,4.657,4.657,0,0,1-1.859.29q-2.281,0-2.281-1.761a1.477,1.477,0,0,1,.468-1.162,2.032,2.032,0,0,1,1.392-.417,3.062,3.062,0,0,1,.76.1,2.8,2.8,0,0,1,.657.249v-.326q0-.887-1.15-.886a2.836,2.836,0,0,0-.909.158,2.41,2.41,0,0,0-.745.382V69.663a2.694,2.694,0,0,1,.848-.315,5.4,5.4,0,0,1,1.227-.133A3.113,3.113,0,0,1,163.03,69.607ZM162,73.533a.279.279,0,0,0,.206-.285v-.794a2.443,2.443,0,0,0-.792-.123,1.4,1.4,0,0,0-.734.148.51.51,0,0,0-.232.463.574.574,0,0,0,.242.479.915.915,0,0,0,.57.183A2.587,2.587,0,0,0,162,73.533Z" transform="translate(-158.931 -69.215)" fill="#fff"/>
          </g>
          <g id="Group_241" data-name="Group 241" transform="translate(32.197 9.336)">
            <path id="Path_22" data-name="Path 22" d="M170.732,73.963a2.883,2.883,0,0,1-.657-2.057,2.84,2.84,0,0,1,.652-2.077,3.317,3.317,0,0,1,3.97.015,3.454,3.454,0,0,1-.021,4.11,2.634,2.634,0,0,1-1.971.7A2.594,2.594,0,0,1,170.732,73.963Zm2.825-.911a1.925,1.925,0,0,0,.287-1.146,1.9,1.9,0,0,0-.283-1.176,1.034,1.034,0,0,0-.857-.352,1,1,0,0,0-.858.352,2.019,2.019,0,0,0-.262,1.176,2,2,0,0,0,.272,1.162.976.976,0,0,0,.848.376A.99.99,0,0,0,173.557,73.052Z" transform="translate(-170.075 -69.176)" fill="#fff"/>
          </g>
          <g id="Group_242" data-name="Group 242" transform="translate(38.544 9.509)">
            <path id="Path_23" data-name="Path 23" d="M182.788,74.282a1.924,1.924,0,0,1-.653-1.589V69.5h1.531v3.066a1.043,1.043,0,0,0,.221.728,1.155,1.155,0,0,0,1.407,0,1.046,1.046,0,0,0,.221-.728V69.5h1.438v3.188a1.97,1.97,0,0,1-.621,1.594,2.641,2.641,0,0,1-1.751.524A2.761,2.761,0,0,1,182.788,74.282Z" transform="translate(-182.135 -69.505)" fill="#fff"/>
          </g>
          <g id="Group_243" data-name="Group 243" transform="translate(44.716 7.636)">
            <path id="Path_24" data-name="Path 24" d="M193.862,65.945h1.582v1.171h-1.582Zm.031,1.945h1.531l.01,5.082h-1.541Z" transform="translate(-193.862 -65.945)" fill="#fff"/>
          </g>
        </g>
      </g>
    </g>
  </g>
</svg>
