<svg xmlns="http://www.w3.org/2000/svg" width="34" height="24" viewBox="0 0 34 24">
  <path id="Path_9" data-name="Path 9" d="M2537,1591.4a1.408,1.408,0,0,0-.016-.16c-.006-.041-.009-.083-.018-.123a1.373,1.373,0,0,0-.043-.134,1.348,1.348,0,0,0-.048-.134c-.018-.037-.04-.072-.061-.108a1.4,1.4,0,0,0-.085-.138c-.006-.009-.01-.018-.016-.027-.02-.026-.045-.046-.066-.071a1.552,1.552,0,0,0-.106-.113,2.537,2.537,0,0,0-.225-.17c-.042-.026-.085-.047-.129-.068s-.083-.041-.127-.057-.093-.03-.141-.043-.088-.024-.133-.032a1.466,1.466,0,0,0-.164-.016c-.032,0-.062-.009-.094-.009h-31.043c-.032,0-.063.007-.1.009a1.617,1.617,0,0,0-.162.016c-.046.008-.09.02-.135.032s-.094.025-.141.042a1.3,1.3,0,0,0-.127.058c-.044.021-.087.042-.129.067s-.077.053-.114.081a1.383,1.383,0,0,0-.111.089,1.5,1.5,0,0,0-.107.113c-.021.025-.046.045-.066.071-.007.009-.01.018-.017.027a1.4,1.4,0,0,0-.085.138c-.021.036-.043.071-.06.109a1.243,1.243,0,0,0-.048.134,1.4,1.4,0,0,0-.043.134c-.009.04-.012.082-.018.123a1.3,1.3,0,0,0-.016.16c0,.01,0,.02,0,.031v21.133a1.456,1.456,0,0,0,1.478,1.434h31.043a1.457,1.457,0,0,0,1.479-1.434v-21.133C2537,1591.423,2537,1591.413,2537,1591.4Zm-5.945,1.465L2520,1600.826l-11.052-7.959Zm-25.094,18.265v-16.849l13.162,9.479a1.514,1.514,0,0,0,1.762,0l13.163-9.479v16.849Z" transform="translate(-2503 -1590)" fill="#fff"/>
</svg>
