<svg xmlns="http://www.w3.org/2000/svg" width="34" height="24" viewBox="0 0 34 24"><g><g><path fill="#2474cf" d="M2.957 21.133V4.283l13.161 9.48c.262.188.572.282.882.282.31 0 .62-.094.88-.282l13.163-9.48v16.85zM28.05 2.867l-11.05 7.959L5.947 2.867zm5.945-1.464c0-.054-.009-.107-.016-.16-.006-.041-.008-.083-.018-.123-.01-.045-.028-.09-.043-.134-.015-.045-.029-.09-.048-.134-.018-.037-.04-.072-.061-.108-.027-.047-.053-.095-.086-.138-.006-.009-.01-.019-.016-.027-.02-.026-.045-.046-.066-.071-.035-.039-.069-.078-.107-.113-.035-.033-.073-.06-.111-.09-.037-.028-.074-.056-.114-.08a1.506 1.506 0 0 0-.129-.068c-.042-.02-.083-.04-.127-.057-.046-.018-.093-.03-.142-.043-.044-.011-.087-.024-.133-.032a1.465 1.465 0 0 0-.163-.016C32.584.007 32.554 0 32.522 0H1.478c-.032 0-.063.007-.095.01-.055.003-.108.006-.162.015-.046.008-.09.02-.135.032C1.04.07.992.082.946.1a1.304 1.304 0 0 0-.128.057C.774.18.732.2.69.225.65.249.613.277.576.305.538.336.5.363.465.396.425.43.393.469.358.508.337.533.312.553.292.578c-.007.01-.01.02-.017.028C.242.649.217.696.19.744.169.78.146.815.13.852.11.895.096.941.08.986c-.015.045-.033.088-.043.134-.01.04-.013.082-.018.123-.007.053-.016.106-.017.16L0 1.433v21.133C0 23.358.662 24 1.478 24h31.044c.816 0 1.478-.642 1.478-1.434V1.434c0-.011-.003-.02-.004-.031z"/></g></g></svg>