<svg xmlns="http://www.w3.org/2000/svg" width="48" height="48" viewBox="0 0 48 48">
  <g id="Group_3015" data-name="Group 3015" transform="translate(48) rotate(90)">
    <path id="Path_1263" data-name="Path 1263" d="M24,48A24,24,0,1,0,0,24,24,24,0,0,0,24,48Z" fill="#fafafa"/>
    <path id="union" d="M6.636.227.319,6.373a.792.792,0,0,0-.084.071.775.775,0,0,0,0,1.111.8.8,0,0,0,.084.071l6.318,6.146a.815.815,0,0,0,1.129,0,.761.761,0,0,0,0-1.1L1.934,7,7.766,1.326a.761.761,0,0,0,0-1.1.815.815,0,0,0-1.129,0Z" transform="translate(28 31) rotate(180)" fill="#0a3352"/>
  </g>
</svg>
